{
  "accessors": [
    {
      "bufferView": 2,
      "componentType": 5126,
      "count": 65532,
      "max": [
        14.212555885314941,
        -0.5521678924560547,
        14.717599868774414
      ],
      "min": [
        -12.519193649291992,
        -19.71158790588379,
        -10.974297523498535
      ],
      "type": "VEC3"
    },
    {
      "bufferView": 2,
      "byteOffset": 786384,
      "componentType": 5126,
      "count": 65532,
      "max": [
        0.9920569658279419,
        1.0,
        0.9999386668205261
      ],
      "min": [
        -0.9998462200164795,
        -0.9999998807907104,
        -0.9994872212409973
      ],
      "type": "VEC3"
    },
    {
      "bufferView": 1,
      "componentType": 5126,
      "count": 65532,
      "max": [
        0.999737024307251,
        0.955810010433197
      ],
      "min": [
        0.00024399999529123306,
        0.00024399999529123306
      ],
      "type": "VEC2"
    },
    {
      "bufferView": 0,
      "componentType": 5125,
      "count": 333315,
      "type": "SCALAR"
    },
    {
      "bufferView": 2,
      "byteOffset": 1572768,
      "componentType": 5126,
      "count": 65532,
      "max": [
        14.19998836517334,
        -0.6038169860839844,
        12.752023696899414
      ],
      "min": [
        -9.534932136535645,
        -20.18094253540039,
        -10.03726577758789
      ],
      "type": "VEC3"
    },
    {
      "bufferView": 2,
      "byteOffset": 2359152,
      "componentType": 5126,
      "count": 65532,
      "max": [
        0.9999909400939941,
        0.9999542832374573,
        0.999981701374054
      ],
      "min": [
        -0.9999547600746155,
        -0.9999999403953552,
        -0.9999948740005493
      ],
      "type": "VEC3"
    },
    {
      "bufferView": 1,
      "byteOffset": 524256,
      "componentType": 5126,
      "count": 65532,
      "max": [
        0.9993990063667297,
        0.9276490211486816
      ],
      "min": [
        0.00024399999529123306,
        0.00026500000967644155
      ],
      "type": "VEC2"
    },
    {
      "bufferView": 0,
      "byteOffset": 1333260,
      "componentType": 5125,
      "count": 318609,
      "type": "SCALAR"
    },
    {
      "bufferView": 2,
      "byteOffset": 3145536,
      "componentType": 5126,
      "count": 65532,
      "max": [
        14.206521034240723,
        -0.6017112731933594,
        12.684814453125
      ],
      "min": [
        -10.81766128540039,
        -19.659637451171875,
        -10.980484962463379
      ],
      "type": "VEC3"
    },
    {
      "bufferView": 2,
      "byteOffset": 3931920,
      "componentType": 5126,
      "count": 65532,
      "max": [
        0.9996123313903809,
        0.9999731779098511,
        0.9999693036079407
      ],
      "min": [
        -0.9998152256011963,
        -0.999999463558197,
        -0.999975860118866
      ],
      "type": "VEC3"
    },
    {
      "bufferView": 1,
      "byteOffset": 1048512,
      "componentType": 5126,
      "count": 65532,
      "max": [
        0.9996640086174011,
        0.9530720114707947
      ],
      "min": [
        0.00024399999529123306,
        0.00035799999022856355
      ],
      "type": "VEC2"
    },
    {
      "bufferView": 0,
      "byteOffset": 2607696,
      "componentType": 5125,
      "count": 301854,
      "type": "SCALAR"
    },
    {
      "bufferView": 2,
      "byteOffset": 4718304,
      "componentType": 5126,
      "count": 65532,
      "max": [
        12.494229316711426,
        -0.5979766845703125,
        8.993453979492188
      ],
      "min": [
        -12.521280288696289,
        -37.134769439697266,
        -9.742280960083008
      ],
      "type": "VEC3"
    },
    {
      "bufferView": 2,
      "byteOffset": 5504688,
      "componentType": 5126,
      "count": 65532,
      "max": [
        0.9999531507492065,
        0.9999191761016846,
        0.9999626874923706
      ],
      "min": [
        -0.9999709725379944,
        -0.9999998807907104,
        -0.9999620914459229
      ],
      "type": "VEC3"
    },
    {
      "bufferView": 1,
      "byteOffset": 1572768,
      "componentType": 5126,
      "count": 65532,
      "max": [
        0.9997400045394897,
        0.9694820046424866
      ],
      "min": [
        0.00024399999529123306,
        0.00033099998836405575
      ],
      "type": "VEC2"
    },
    {
      "bufferView": 0,
      "byteOffset": 3815112,
      "componentType": 5125,
      "count": 315990,
      "type": "SCALAR"
    },
    {
      "bufferView": 2,
      "byteOffset": 6291072,
      "componentType": 5126,
      "count": 65532,
      "max": [
        12.54502010345459,
        -14.647172927856445,
        10.179889678955078
      ],
      "min": [
        -9.123159408569336,
        -41.677284240722656,
        -14.306862831115723
      ],
      "type": "VEC3"
    },
    {
      "bufferView": 2,
      "byteOffset": 7077456,
      "componentType": 5126,
      "count": 65532,
      "max": [
        0.9999909400939941,
        0.9481820464134216,
        0.9999931454658508
      ],
      "min": [
        -0.9999993443489075,
        -0.9999275803565979,
        -0.9999950528144836
      ],
      "type": "VEC3"
    },
    {
      "bufferView": 1,
      "byteOffset": 2097024,
      "componentType": 5126,
      "count": 65532,
      "max": [
        0.9995369911193848,
        0.9551810026168823
      ],
      "min": [
        0.00024399999529123306,
        0.00036700000055134296
      ],
      "type": "VEC2"
    },
    {
      "bufferView": 0,
      "byteOffset": 5079072,
      "componentType": 5125,
      "count": 329526,
      "type": "SCALAR"
    },
    {
      "bufferView": 2,
      "byteOffset": 7863840,
      "componentType": 5126,
      "count": 65532,
      "max": [
        11.139846801757813,
        -25.326583862304688,
        7.162510395050049
      ],
      "min": [
        -7.58046817779541,
        -41.60923767089844,
        -14.893610954284668
      ],
      "type": "VEC3"
    },
    {
      "bufferView": 2,
      "byteOffset": 8650224,
      "componentType": 5126,
      "count": 65532,
      "max": [
        0.9999934434890747,
        0.9991430640220642,
        0.9913081526756287
      ],
      "min": [
        -0.999959409236908,
        -0.9999815821647644,
        -0.9999815225601196
      ],
      "type": "VEC3"
    },
    {
      "bufferView": 1,
      "byteOffset": 2621280,
      "componentType": 5126,
      "count": 65532,
      "max": [
        0.999563992023468,
        0.9519150257110596
      ],
      "min": [
        0.00024399999529123306,
        0.0002770000137388706
      ],
      "type": "VEC2"
    },
    {
      "bufferView": 0,
      "byteOffset": 6397176,
      "componentType": 5125,
      "count": 328026,
      "type": "SCALAR"
    },
    {
      "bufferView": 2,
      "byteOffset": 9436608,
      "componentType": 5126,
      "count": 65532,
      "max": [
        11.101473808288574,
        -27.788440704345703,
        7.196328639984131
      ],
      "min": [
        -7.655709266662598,
        -41.677284240722656,
        -5.649923324584961
      ],
      "type": "VEC3"
    },
    {
      "bufferView": 2,
      "byteOffset": 10222992,
      "componentType": 5126,
      "count": 65532,
      "max": [
        0.9999969601631165,
        0.9574100375175476,
        0.9999764561653137
      ],
      "min": [
        -0.9999719262123108,
        -0.9999727606773376,
        -0.998741865158081
      ],
      "type": "VEC3"
    },
    {
      "bufferView": 1,
      "byteOffset": 3145536,
      "componentType": 5126,
      "count": 65532,
      "max": [
        0.999750018119812,
        0.9616699814796448
      ],
      "min": [
        0.00024399999529123306,
        0.0003209999995306134
      ],
      "type": "VEC2"
    },
    {
      "bufferView": 0,
      "byteOffset": 7709280,
      "componentType": 5125,
      "count": 324750,
      "type": "SCALAR"
    },
    {
      "bufferView": 2,
      "byteOffset": 11009376,
      "componentType": 5126,
      "count": 65532,
      "max": [
        11.067864418029785,
        -14.932586669921875,
        7.1924920082092285
      ],
      "min": [
        -7.878793239593506,
        -41.65100860595703,
        -14.884944915771484
      ],
      "type": "VEC3"
    },
    {
      "bufferView": 2,
      "byteOffset": 11795760,
      "componentType": 5126,
      "count": 65532,
      "max": [
        0.9999430179595947,
        0.9999439120292664,
        0.9999566078186035
      ],
      "min": [
        -0.9999350309371948,
        -0.9999833703041077,
        -0.9999995827674866
      ],
      "type": "VEC3"
    },
    {
      "bufferView": 1,
      "byteOffset": 3669792,
      "componentType": 5126,
      "count": 65532,
      "max": [
        0.9996629953384399,
        0.9403330087661743
      ],
      "min": [
        0.00024399999529123306,
        0.0002579999854788184
      ],
      "type": "VEC2"
    },
    {
      "bufferView": 0,
      "byteOffset": 9008280,
      "componentType": 5125,
      "count": 296457,
      "type": "SCALAR"
    },
    {
      "bufferView": 2,
      "byteOffset": 12582144,
      "componentType": 5126,
      "count": 65532,
      "max": [
        12.509099006652832,
        -14.64162826538086,
        9.606919288635254
      ],
      "min": [
        -9.684685707092285,
        -28.693923950195313,
        -13.781926155090332
      ],
      "type": "VEC3"
    },
    {
      "bufferView": 2,
      "byteOffset": 13368528,
      "componentType": 5126,
      "count": 65532,
      "max": [
        0.9999531507492065,
        0.9999681711196899,
        0.9998380541801453
      ],
      "min": [
        -0.9999709725379944,
        -0.9974548816680908,
        -0.9999536871910095
      ],
      "type": "VEC3"
    },
    {
      "bufferView": 1,
      "byteOffset": 4194048,
      "componentType": 5126,
      "count": 65532,
      "max": [
        0.999576985836029,
        0.9645990133285522
      ],
      "min": [
        0.00024399999529123306,
        0.0002749999985098839
      ],
      "type": "VEC2"
    },
    {
      "bufferView": 0,
      "byteOffset": 10194108,
      "componentType": 5125,
      "count": 287193,
      "type": "SCALAR"
    },
    {
      "bufferView": 2,
      "byteOffset": 14154912,
      "componentType": 5126,
      "count": 3,
      "max": [
        -1.7637381553649902,
        -21.643310546875,
        9.660968780517578
      ],
      "min": [
        -1.8533422946929932,
        -21.689640045166016,
        9.619510650634766
      ],
      "type": "VEC3"
    },
    {
      "bufferView": 2,
      "byteOffset": 14154948,
      "componentType": 5126,
      "count": 3,
      "max": [
        0.37317323684692383,
        -0.38384097814559937,
        0.8613016605377197
      ],
      "min": [
        0.32506632804870605,
        -0.45272043347358704,
        0.8200283646583557
      ],
      "type": "VEC3"
    },
    {
      "bufferView": 1,
      "byteOffset": 4718304,
      "componentType": 5126,
      "count": 3,
      "max": [
        0.6289269924163818,
        0.2812420129776001
      ],
      "min": [
        0.6275799870491028,
        0.2805449962615967
      ],
      "type": "VEC2"
    },
    {
      "bufferView": 0,
      "byteOffset": 11342880,
      "componentType": 5125,
      "count": 3,
      "type": "SCALAR"
    },
    {
      "bufferView": 2,
      "byteOffset": 14154984,
      "componentType": 5126,
      "count": 28471,
      "max": [
        14.224936485290527,
        -0.5917148590087891,
        14.56900691986084
      ],
      "min": [
        -12.532313346862793,
        -5.12169075012207,
        -10.977177619934082
      ],
      "type": "VEC3"
    },
    {
      "bufferView": 2,
      "byteOffset": 14496636,
      "componentType": 5126,
      "count": 28471,
      "max": [
        0.9998013973236084,
        0.9959095120429993,
        0.9902697205543518
      ],
      "min": [
        -0.9999935030937195,
        -0.9730672240257263,
        -0.9097760319709778
      ],
      "type": "VEC3"
    },
    {
      "bufferView": 1,
      "byteOffset": 4718328,
      "componentType": 5126,
      "count": 28471,
      "max": [
        0.1370439976453781,
        0.24682599306106567
      ],
      "min": [
        0.00024399999529123306,
        0.00035600000410340726
      ],
      "type": "VEC2"
    },
    {
      "bufferView": 0,
      "byteOffset": 11342892,
      "componentType": 5125,
      "count": 164271,
      "type": "SCALAR"
    }
  ],
  "asset": {
    "extras": {
      "author": "danielpett (https://sketchfab.com/danielpett)",
      "license": "CC-BY-4.0 (http://creativecommons.org/licenses/by/4.0/)",
      "source": "https://sketchfab.com/3d-models/marble-head-of-herakles-bac6ecaae6974d9597b71e028af53a7b",
      "title": "Marble head of Herakles"
    },
    "generator": "Sketchfab-15.82.0",
    "version": "2.0"
  },
  "bufferViews": [
    {
      "buffer": 0,
      "byteLength": 11999976,
      "name": "floatBufferViews",
      "target": 34963
    },
    {
      "buffer": 0,
      "byteLength": 4946096,
      "byteOffset": 11999976,
      "byteStride": 8,
      "name": "floatBufferViews",
      "target": 34962
    },
    {
      "buffer": 0,
      "byteLength": 14838288,
      "byteOffset": 16946072,
      "byteStride": 12,
      "name": "floatBufferViews",
      "target": 34962
    }
  ],
  "buffers": [
    {
      "byteLength": 31784360,
      "uri": "scene.bin"
    }
  ],
  "images": [
    {
      "uri": "textures/hercules_LOD0_u0_v0_baseColor.jpeg"
    },
    {
      "uri": "textures/hercules_LOD0_u1_v0_baseColor.jpeg"
    }
  ],
  "materials": [
    {
      "doubleSided": true,
      "name": "hercules_LOD0_u0_v0",
      "pbrMetallicRoughness": {
        "baseColorTexture": {
          "index": 0
        },
        "metallicFactor": 0.0
      }
    },
    {
      "doubleSided": true,
      "name": "hercules_LOD0_u1_v0",
      "pbrMetallicRoughness": {
        "baseColorTexture": {
          "index": 1
        },
        "metallicFactor": 0.0
      }
    }
  ],
  "meshes": [
    {
      "name": "Object_0",
      "primitives": [
        {
          "attributes": {
            "NORMAL": 1,
            "POSITION": 0,
            "TEXCOORD_0": 2
          },
          "indices": 3,
          "material": 0,
          "mode": 4
        }
      ]
    },
    {
      "name": "Object_1",
      "primitives": [
        {
          "attributes": {
            "NORMAL": 5,
            "POSITION": 4,
            "TEXCOORD_0": 6
          },
          "indices": 7,
          "material": 0,
          "mode": 4
        }
      ]
    },
    {
      "name": "Object_2",
      "primitives": [
        {
          "attributes": {
            "NORMAL": 9,
            "POSITION": 8,
            "TEXCOORD_0": 10
          },
          "indices": 11,
          "material": 0,
          "mode": 4
        }
      ]
    },
    {
      "name": "Object_3",
      "primitives": [
        {
          "attributes": {
            "NORMAL": 13,
            "POSITION": 12,
            "TEXCOORD_0": 14
          },
          "indices": 15,
          "material": 0,
          "mode": 4
        }
      ]
    },
    {
      "name": "Object_4",
      "primitives": [
        {
          "attributes": {
            "NORMAL": 17,
            "POSITION": 16,
            "TEXCOORD_0": 18
          },
          "indices": 19,
          "material": 0,
          "mode": 4
        }
      ]
    },
    {
      "name": "Object_5",
      "primitives": [
        {
          "attributes": {
            "NORMAL": 21,
            "POSITION": 20,
            "TEXCOORD_0": 22
          },
          "indices": 23,
          "material": 0,
          "mode": 4
        }
      ]
    },
    {
      "name": "Object_6",
      "primitives": [
        {
          "attributes": {
            "NORMAL": 25,
            "POSITION": 24,
            "TEXCOORD_0": 26
          },
          "indices": 27,
          "material": 0,
          "mode": 4
        }
      ]
    },
    {
      "name": "Object_7",
      "primitives": [
        {
          "attributes": {
            "NORMAL": 29,
            "POSITION": 28,
            "TEXCOORD_0": 30
          },
          "indices": 31,
          "material": 0,
          "mode": 4
        }
      ]
    },
    {
      "name": "Object_8",
      "primitives": [
        {
          "attributes": {
            "NORMAL": 33,
            "POSITION": 32,
            "TEXCOORD_0": 34
          },
          "indices": 35,
          "material": 0,
          "mode": 4
        }
      ]
    },
    {
      "name": "Object_9",
      "primitives": [
        {
          "attributes": {
            "NORMAL": 37,
            "POSITION": 36,
            "TEXCOORD_0": 38
          },
          "indices": 39,
          "material": 0,
          "mode": 4
        }
      ]
    },
    {
      "name": "Object_10",
      "primitives": [
        {
          "attributes": {
            "NORMAL": 41,
            "POSITION": 40,
            "TEXCOORD_0": 42
          },
          "indices": 43,
          "material": 1,
          "mode": 4
        }
      ]
    }
  ],
  "nodes": [
    {
      "children": [
        1
      ],
      "matrix": [
        0.9997634291648865,
        0.0021118102595210123,
        -0.02164699137210846,
        0.0,
        -1.717376241217039e-16,
        -0.9952750205993652,
        -0.09709580987691901,
        0.0,
        -0.02174975723028183,
        0.0970728397369387,
        -0.9950395822525024,
        0.0,
        0.0,
        0.0,
        0.0,
        1.0
      ],
      "name": "Sketchfab_model"
    },
    {
      "children": [
        2,
        3,
        4,
        5,
        6,
        7,
        8,
        9,
        10,
        11,
        12
      ],
      "name": "hercules_LOD0.obj.cleaner.materialmerger.gles"
    },
    {
      "mesh": 0,
      "name": "Object_2"
    },
    {
      "mesh": 1,
      "name": "Object_3"
    },
    {
      "mesh": 2,
      "name": "Object_4"
    },
    {
      "mesh": 3,
      "name": "Object_5"
    },
    {
      "mesh": 4,
      "name": "Object_6"
    },
    {
      "mesh": 5,
      "name": "Object_7"
    },
    {
      "mesh": 6,
      "name": "Object_8"
    },
    {
      "mesh": 7,
      "name": "Object_9"
    },
    {
      "mesh": 8,
      "name": "Object_10"
    },
    {
      "mesh": 9,
      "name": "Object_11"
    },
    {
      "mesh": 10,
      "name": "Object_12"
    }
  ],
  "samplers": [
    {
      "magFilter": 9729,
      "minFilter": 9987,
      "wrapS": 10497,
      "wrapT": 10497
    }
  ],
  "scene": 0,
  "scenes": [
    {
      "name": "Sketchfab_Scene",
      "nodes": [
        0
      ]
    }
  ],
  "textures": [
    {
      "sampler": 0,
      "source": 0
    },
    {
      "sampler": 0,
      "source": 1
    }
  ]
}
